<?xml version="1.0" encoding="utf-8"?>
<!-- Generator: Adobe Illustrator 27.1.0, SVG Export Plug-In . SVG Version: 6.00 Build 0)  -->
<svg version="1.1" id="Capa_1" xmlns="http://www.w3.org/2000/svg" xmlns:xlink="http://www.w3.org/1999/xlink" x="0px" y="0px"
	 viewBox="0 0 750 500" style="enable-background:new 0 0 750 500;" xml:space="preserve">
<style type="text/css">
	.st0{display:none;}
	.st1{display:inline;}
	.st2{clip-path:url(#SVGID_00000054962274607118524490000011950436000887248788_);}
	.st3{clip-path:url(#SVGID_00000020400689818755708680000012432241599530799764_);}
	.st4{clip-path:url(#SVGID_00000077311283555052081380000014053175671533781650_);}
	.st5{clip-path:url(#SVGID_00000180353777852729098320000009517155795842911403_);fill:#EA592D;}
	.st6{fill:#EA592F;}
	.st7{font-family:'FontAwesome5FreeSolid';}
	.st8{font-size:93.9114px;}
	.st9{fill:none;}
</style>
<g class="st0">
	<g class="st1">
		<defs>
			<rect id="SVGID_1_" x="97.03" y="164.14" width="154.48" height="154.48"/>
		</defs>
		<clipPath id="SVGID_00000026147057969880138300000001810383291656834216_">
			<use xlink:href="#SVGID_1_"  style="overflow:visible;"/>
		</clipPath>
		<g style="clip-path:url(#SVGID_00000026147057969880138300000001810383291656834216_);">
			<defs>
				<rect id="SVGID_00000119080396555573234490000015662156609779760830_" x="97.03" y="164.14" width="154.48" height="154.48"/>
			</defs>
			<clipPath id="SVGID_00000058554189717593250900000015456238829137770888_">
				<use xlink:href="#SVGID_00000119080396555573234490000015662156609779760830_"  style="overflow:visible;"/>
			</clipPath>
			<g style="clip-path:url(#SVGID_00000058554189717593250900000015456238829137770888_);">
				<defs>
					<rect id="SVGID_00000080907874854017850840000004158784941107854745_" x="144.66" y="227.7" width="26.18" height="18.54"/>
				</defs>
				<clipPath id="SVGID_00000157987568632816693670000007485610119122252675_">
					<use xlink:href="#SVGID_00000080907874854017850840000004158784941107854745_"  style="overflow:visible;"/>
				</clipPath>
				<g style="clip-path:url(#SVGID_00000157987568632816693670000007485610119122252675_);">
					<defs>
						<rect id="SVGID_00000178904412485042931910000000277667966503186308_" x="144.66" y="227.7" width="26.18" height="18.54"/>
					</defs>
					<clipPath id="SVGID_00000048494129046187876150000007083284614072967355_">
						<use xlink:href="#SVGID_00000178904412485042931910000000277667966503186308_"  style="overflow:visible;"/>
					</clipPath>
				</g>
			</g>
		</g>
		<g style="clip-path:url(#SVGID_00000026147057969880138300000001810383291656834216_);">
			<defs>
				<rect id="SVGID_00000133527737019420541120000000833302117809289143_" x="97.03" y="164.14" width="154.48" height="154.48"/>
			</defs>
			<clipPath id="SVGID_00000003815307321908932860000002548122907827858832_">
				<use xlink:href="#SVGID_00000133527737019420541120000000833302117809289143_"  style="overflow:visible;"/>
			</clipPath>
		</g>
		<g style="clip-path:url(#SVGID_00000026147057969880138300000001810383291656834216_);">
			<defs>
				<rect id="SVGID_00000005251280324941129570000014927998647912243592_" x="97.03" y="164.14" width="154.48" height="154.48"/>
			</defs>
			<clipPath id="SVGID_00000027600894831199216830000005035736185322454695_">
				<use xlink:href="#SVGID_00000005251280324941129570000014927998647912243592_"  style="overflow:visible;"/>
			</clipPath>
			<path style="clip-path:url(#SVGID_00000027600894831199216830000005035736185322454695_);fill:#EA592D;" d="M217.34,183.08
				h-84.09c-8.67,0-15.71,7.03-15.71,15.71v84.09c0,8.67,7.03,15.71,15.71,15.71h84.09c8.67,0,15.71-7.03,15.71-15.71v-84.09
				C233.05,190.11,226.01,183.08,217.34,183.08 M224.72,279.43c0,5.98-4.85,10.83-10.83,10.83h-77.24
				c-5.98,0-10.83-4.85-10.83-10.83v-77.49c0-5.98,4.85-10.83,10.83-10.83h77.24c5.98,0,10.83,4.85,10.83,10.83V279.43z"/>
			
				<rect x="170.93" y="191.11" style="clip-path:url(#SVGID_00000027600894831199216830000005035736185322454695_);fill:#EA592D;" width="8.74" height="102.46"/>
			
				<rect x="125.83" y="236.31" style="clip-path:url(#SVGID_00000027600894831199216830000005035736185322454695_);fill:#EA592D;" width="102.46" height="8.74"/>
			<path style="clip-path:url(#SVGID_00000027600894831199216830000005035736185322454695_);fill:#EA592D;" d="M148.72,229.68
				L148.72,229.68c-2.64,0-4.78-2.14-4.78-4.78v-21.03c0-2.64,2.14-4.78,4.78-4.78c2.64,0,4.78,2.14,4.78,4.78v21.03
				C153.5,227.54,151.36,229.68,148.72,229.68"/>
			<path style="clip-path:url(#SVGID_00000027600894831199216830000005035736185322454695_);fill:#EA592D;" d="M133.43,214.39
				L133.43,214.39c0-2.64,2.14-4.78,4.78-4.78h21.03c2.64,0,4.78,2.14,4.78,4.78c0,2.64-2.14,4.78-4.78,4.78h-21.03
				C135.57,219.17,133.43,217.03,133.43,214.39"/>
			<path style="clip-path:url(#SVGID_00000027600894831199216830000005035736185322454695_);fill:#EA592D;" d="M191.56,279.13
				L191.56,279.13c-1.87-1.87-1.87-4.89,0-6.76l14.87-14.87c1.87-1.87,4.89-1.87,6.76,0c1.87,1.87,1.87,4.89,0,6.76l-14.87,14.87
				C196.45,280.99,193.43,280.99,191.56,279.13"/>
			<path style="clip-path:url(#SVGID_00000027600894831199216830000005035736185322454695_);fill:#EA592D;" d="M191.56,257.5
				L191.56,257.5c1.87-1.87,4.89-1.87,6.76,0l14.87,14.87c1.87,1.87,1.87,4.89,0,6.76c-1.87,1.87-4.89,1.87-6.76,0l-14.87-14.87
				C189.69,262.4,189.69,259.37,191.56,257.5"/>
			<path style="clip-path:url(#SVGID_00000027600894831199216830000005035736185322454695_);fill:#EA592D;" d="M133.56,268.32
				L133.56,268.32c0-2.64,2.14-4.78,4.78-4.78h21.03c2.64,0,4.78,2.14,4.78,4.78c0,2.64-2.14,4.78-4.78,4.78h-21.03
				C135.7,273.09,133.56,270.96,133.56,268.32"/>
			<path style="clip-path:url(#SVGID_00000027600894831199216830000005035736185322454695_);fill:#EA592D;" d="M187.08,214.39
				L187.08,214.39c0-2.64,2.14-4.78,4.78-4.78h21.03c2.64,0,4.78,2.14,4.78,4.78c0,2.64-2.14,4.78-4.78,4.78h-21.03
				C189.22,219.17,187.08,217.03,187.08,214.39"/>
			<path style="clip-path:url(#SVGID_00000027600894831199216830000005035736185322454695_);fill:#EA592D;" d="M153.89,279.97
				c0,2.78-2.25,5.03-5.03,5.03c-2.78,0-5.03-2.25-5.03-5.03c0-2.78,2.25-5.03,5.03-5.03C151.63,274.94,153.89,277.19,153.89,279.97
				"/>
			<path style="clip-path:url(#SVGID_00000027600894831199216830000005035736185322454695_);fill:#EA592D;" d="M153.89,256.66
				c0,2.78-2.25,5.03-5.03,5.03c-2.78,0-5.03-2.25-5.03-5.03c0-2.78,2.25-5.03,5.03-5.03C151.63,251.63,153.89,253.88,153.89,256.66
				"/>
		</g>
	</g>
</g>
<g id="Logo">
	<g>
		<path class="st6" d="M216.48,183.53h-84.43c-8.71,0-15.77,7.06-15.77,15.77v84.43c0,8.71,7.06,15.77,15.77,15.77h84.43
			c8.71,0,15.77-7.06,15.77-15.77v-84.43C232.25,190.6,225.19,183.53,216.48,183.53z M223.89,280.28c0,6-4.87,10.87-10.87,10.87
			h-77.55c-6,0-10.87-4.87-10.87-10.87v-77.81c0-6,4.87-10.87,10.87-10.87h77.55c6,0,10.87,4.87,10.87,10.87V280.28z"/>
	</g>
	<g>
		<rect x="169.88" y="191.6" class="st6" width="8.77" height="102.88"/>
	</g>
	<g>
		<rect x="124.6" y="236.99" class="st6" width="102.88" height="8.77"/>
	</g>
	<path class="st6" d="M147.58,230.33L147.58,230.33c-2.65,0-4.8-2.15-4.8-4.8v-21.11c0-2.65,2.15-4.8,4.8-4.8l0,0
		c2.65,0,4.8,2.15,4.8,4.8v21.11C152.38,228.18,150.23,230.33,147.58,230.33z"/>
	<path class="st6" d="M132.23,214.98L132.23,214.98c0-2.65,2.15-4.8,4.8-4.8h21.11c2.65,0,4.8,2.15,4.8,4.8l0,0
		c0,2.65-2.15,4.8-4.8,4.8h-21.11C134.38,219.77,132.23,217.62,132.23,214.98z"/>
	<path class="st6" d="M190.6,279.98L190.6,279.98c-1.87-1.87-1.87-4.91,0-6.78l14.93-14.93c1.87-1.87,4.91-1.87,6.78,0l0,0
		c1.87,1.87,1.87,4.91,0,6.78l-14.93,14.93C195.51,281.85,192.47,281.85,190.6,279.98z"/>
	<path class="st6" d="M190.6,258.27L190.6,258.27c1.87-1.87,4.91-1.87,6.78,0l14.93,14.93c1.87,1.87,1.87,4.91,0,6.78l0,0
		c-1.87,1.87-4.91,1.87-6.78,0l-14.93-14.93C188.73,263.18,188.73,260.14,190.6,258.27z"/>
	<path class="st6" d="M132.36,269.12L132.36,269.12c0-2.65,2.15-4.8,4.8-4.8h21.11c2.65,0,4.8,2.15,4.8,4.8l0,0
		c0,2.65-2.15,4.8-4.8,4.8h-21.11C134.51,273.92,132.36,271.77,132.36,269.12z"/>
	<path class="st6" d="M186.1,214.98L186.1,214.98c0-2.65,2.15-4.8,4.8-4.8h21.11c2.65,0,4.8,2.15,4.8,4.8l0,0
		c0,2.65-2.15,4.8-4.8,4.8H190.9C188.25,219.77,186.1,217.62,186.1,214.98z"/>
	<circle class="st6" cx="147.72" cy="280.83" r="5.05"/>
	<circle class="st6" cx="147.72" cy="257.42" r="5.05"/>
</g>
<text transform="matrix(1 0 0 1 258.8697 289.48)" class="st6 st7 st8">M</text>
<text transform="matrix(1 0 0 1 331.708 289.48)" class="st6 st7 st8">a</text>
<rect x="618" y="182.1" class="st9" width="3.1" height="0"/>
<text transform="matrix(1 0 0 1 384.7569 289.48)" class="st6 st7 st8">t</text>
<text transform="matrix(1 0 0 1 415.7549 289.48)" class="st6 st7 st8">h</text>
<text transform="matrix(1 0 0 1 463.6289 289.48)" class="st6 st7 st8">T</text>
<text transform="matrix(1 0 0 1 508.1631 289.48)" class="st6 st7 st8">e</text>
<text transform="matrix(1 0 0 1 554.9346 289.48)" class="st6 st7 st8">s</text>
<text transform="matrix(1 0 0 1 596.7549 289.48)" class="st6 st7 st8">t</text>
</svg>
