<?xml version="1.0" encoding="utf-8"?>
<!-- Generator: Adobe Illustrator 27.1.0, SVG Export Plug-In . SVG Version: 6.00 Build 0)  -->
<svg version="1.1" id="Capa_1" xmlns="http://www.w3.org/2000/svg" xmlns:xlink="http://www.w3.org/1999/xlink" x="0px" y="0px"
	 viewBox="0 0 750 500" style="enable-background:new 0 0 750 500;" xml:space="preserve">
<style type="text/css">
	.st0{clip-path:url(#SVGID_00000107576063396348470890000005533103288935303317_);}
	.st1{clip-path:url(#SVGID_00000111150486791825326000000006328108921208383391_);}
	.st2{clip-path:url(#SVGID_00000102514422081590843660000013031053990477274272_);}
	.st3{clip-path:url(#SVGID_00000091709869138078814850000013471498861020460200_);fill:#EA592D;}
	.st4{font-family:'FontAwesome5FreeSolid';}
	.st5{font-size:93.9114px;}
	.st6{fill:none;}
</style>
<g>
	<g>
		<defs>
			<rect id="SVGID_1_" x="87.82" y="164.14" width="154.48" height="154.48"/>
		</defs>
		<clipPath id="SVGID_00000041285060426464104890000001482302819801403050_">
			<use xlink:href="#SVGID_1_"  style="overflow:visible;"/>
		</clipPath>
		<g style="clip-path:url(#SVGID_00000041285060426464104890000001482302819801403050_);">
			<defs>
				<rect id="SVGID_00000019642802479205472610000005365928197570997127_" x="87.82" y="164.14" width="154.48" height="154.48"/>
			</defs>
			<clipPath id="SVGID_00000010996401485965609450000001124923325246152846_">
				<use xlink:href="#SVGID_00000019642802479205472610000005365928197570997127_"  style="overflow:visible;"/>
			</clipPath>
			<g style="clip-path:url(#SVGID_00000010996401485965609450000001124923325246152846_);">
				<defs>
					<rect id="SVGID_00000039134325385926466150000016624636476850003117_" x="135.46" y="227.7" width="26.18" height="18.54"/>
				</defs>
				<clipPath id="SVGID_00000126298473630139033940000011196953525718961565_">
					<use xlink:href="#SVGID_00000039134325385926466150000016624636476850003117_"  style="overflow:visible;"/>
				</clipPath>
				<g style="clip-path:url(#SVGID_00000126298473630139033940000011196953525718961565_);">
					<defs>
						<rect id="SVGID_00000129206510536628558040000017807900398543463313_" x="135.46" y="227.7" width="26.18" height="18.54"/>
					</defs>
					<clipPath id="SVGID_00000101807407695774438530000010007479445711469457_">
						<use xlink:href="#SVGID_00000129206510536628558040000017807900398543463313_"  style="overflow:visible;"/>
					</clipPath>
				</g>
			</g>
		</g>
		<g style="clip-path:url(#SVGID_00000041285060426464104890000001482302819801403050_);">
			<defs>
				<rect id="SVGID_00000011748602919064528340000007063416654991251625_" x="87.82" y="164.14" width="154.48" height="154.48"/>
			</defs>
			<clipPath id="SVGID_00000066482230718633652050000013045820176612885379_">
				<use xlink:href="#SVGID_00000011748602919064528340000007063416654991251625_"  style="overflow:visible;"/>
			</clipPath>
		</g>
		<g style="clip-path:url(#SVGID_00000041285060426464104890000001482302819801403050_);">
			<defs>
				<rect id="SVGID_00000170975712633201747030000011084021498265863069_" x="87.82" y="164.14" width="154.48" height="154.48"/>
			</defs>
			<clipPath id="SVGID_00000036953023802630249400000002310511373043131838_">
				<use xlink:href="#SVGID_00000170975712633201747030000011084021498265863069_"  style="overflow:visible;"/>
			</clipPath>
			<path style="clip-path:url(#SVGID_00000036953023802630249400000002310511373043131838_);fill:#EA592D;" d="M208.13,183.08
				h-84.09c-8.67,0-15.71,7.03-15.71,15.71v84.09c0,8.67,7.03,15.71,15.71,15.71h84.09c8.67,0,15.71-7.03,15.71-15.71v-84.09
				C223.84,190.11,216.81,183.08,208.13,183.08 M215.51,279.43c0,5.98-4.85,10.83-10.83,10.83h-77.24
				c-5.98,0-10.83-4.85-10.83-10.83v-77.49c0-5.98,4.85-10.83,10.83-10.83h77.24c5.98,0,10.83,4.85,10.83,10.83V279.43z"/>
			
				<rect x="161.72" y="191.11" style="clip-path:url(#SVGID_00000036953023802630249400000002310511373043131838_);fill:#EA592D;" width="8.74" height="102.46"/>
			
				<rect x="116.62" y="236.31" style="clip-path:url(#SVGID_00000036953023802630249400000002310511373043131838_);fill:#EA592D;" width="102.46" height="8.74"/>
			<path style="clip-path:url(#SVGID_00000036953023802630249400000002310511373043131838_);fill:#EA592D;" d="M139.51,229.68
				L139.51,229.68c-2.64,0-4.78-2.14-4.78-4.78v-21.03c0-2.64,2.14-4.78,4.78-4.78c2.64,0,4.78,2.14,4.78,4.78v21.03
				C144.29,227.54,142.15,229.68,139.51,229.68"/>
			<path style="clip-path:url(#SVGID_00000036953023802630249400000002310511373043131838_);fill:#EA592D;" d="M124.22,214.39
				L124.22,214.39c0-2.64,2.14-4.78,4.78-4.78h21.03c2.64,0,4.78,2.14,4.78,4.78c0,2.64-2.14,4.78-4.78,4.78H129
				C126.36,219.17,124.22,217.03,124.22,214.39"/>
			<path style="clip-path:url(#SVGID_00000036953023802630249400000002310511373043131838_);fill:#EA592D;" d="M182.35,279.13
				L182.35,279.13c-1.87-1.87-1.87-4.89,0-6.76l14.87-14.87c1.87-1.87,4.89-1.87,6.76,0c1.87,1.87,1.87,4.89,0,6.76l-14.87,14.87
				C187.24,280.99,184.22,280.99,182.35,279.13"/>
			<path style="clip-path:url(#SVGID_00000036953023802630249400000002310511373043131838_);fill:#EA592D;" d="M182.35,257.5
				L182.35,257.5c1.87-1.87,4.89-1.87,6.76,0l14.87,14.87c1.87,1.87,1.87,4.89,0,6.76c-1.87,1.87-4.89,1.87-6.76,0l-14.87-14.87
				C180.49,262.4,180.49,259.37,182.35,257.5"/>
			<path style="clip-path:url(#SVGID_00000036953023802630249400000002310511373043131838_);fill:#EA592D;" d="M124.36,268.32
				L124.36,268.32c0-2.64,2.14-4.78,4.78-4.78h21.03c2.64,0,4.78,2.14,4.78,4.78c0,2.64-2.14,4.78-4.78,4.78h-21.03
				C126.49,273.09,124.36,270.96,124.36,268.32"/>
			<path style="clip-path:url(#SVGID_00000036953023802630249400000002310511373043131838_);fill:#EA592D;" d="M177.87,214.39
				L177.87,214.39c0-2.64,2.14-4.78,4.78-4.78h21.03c2.64,0,4.78,2.14,4.78,4.78c0,2.64-2.14,4.78-4.78,4.78h-21.03
				C180.01,219.17,177.87,217.03,177.87,214.39"/>
			<path style="clip-path:url(#SVGID_00000036953023802630249400000002310511373043131838_);fill:#EA592D;" d="M144.68,279.97
				c0,2.78-2.25,5.03-5.03,5.03s-5.03-2.25-5.03-5.03c0-2.78,2.25-5.03,5.03-5.03S144.68,277.19,144.68,279.97"/>
			<path style="clip-path:url(#SVGID_00000036953023802630249400000002310511373043131838_);fill:#EA592D;" d="M144.68,256.66
				c0,2.78-2.25,5.03-5.03,5.03s-5.03-2.25-5.03-5.03c0-2.78,2.25-5.03,5.03-5.03S144.68,253.88,144.68,256.66"/>
		</g>
	</g>
</g>
<text transform="matrix(1 0 0 1 250.5527 288.7644)" class="st4 st5">M</text>
<text transform="matrix(1 0 0 1 323.3911 288.7644)" class="st4 st5">a</text>
<rect x="609.69" y="181.39" class="st6" width="3.1" height="0"/>
<text transform="matrix(1 0 0 1 376.4399 288.7644)" class="st4 st5">t</text>
<text transform="matrix(1 0 0 1 407.438 288.7644)" class="st4 st5">h</text>
<text transform="matrix(1 0 0 1 455.312 288.7644)" class="st4 st5">T</text>
<text transform="matrix(1 0 0 1 499.8462 288.7644)" class="st4 st5">e</text>
<text transform="matrix(1 0 0 1 546.6177 288.7644)" class="st4 st5">s</text>
<text transform="matrix(1 0 0 1 588.438 288.7644)" class="st4 st5">t</text>
</svg>
